<svg xmlns="http://www.w3.org/2000/svg" width="24" height="25" viewBox="0 0 24 25" fill="none">
  <path d="M3.45 7.74995H9.15C9.40196 7.74995 9.64359 7.85004 9.82175 8.0282C9.99991 8.20636 10.1 8.448 10.1 8.69995V11.55H12V4.89995C12 4.648 12.1001 4.40636 12.2782 4.2282C12.4564 4.05004 12.698 3.94995 12.95 3.94995H20.55C20.802 3.94995 21.0436 4.05004 21.2218 4.2282C21.3999 4.40636 21.5 4.648 21.5 4.89995V20.1C21.5 20.3519 21.3999 20.5935 21.2218 20.7717C21.0436 20.9499 20.802 21.05 20.55 21.05H3.45C3.19804 21.05 2.95641 20.9499 2.77825 20.7717C2.60009 20.5935 2.5 20.3519 2.5 20.1V8.69995C2.5 8.448 2.60009 8.20636 2.77825 8.0282C2.95641 7.85004 3.19804 7.74995 3.45 7.74995ZM15.8 6.79995H13.9V8.69995H15.8V6.79995ZM17.7 16.3H19.6V14.4H17.7V16.3ZM17.7 12.5H19.6V10.6H17.7V12.5ZM17.7 8.69995H19.6V6.79995H17.7V8.69995ZM13.9 16.3H15.8V14.4H13.9V16.3ZM13.9 12.5H15.8V10.6H13.9V12.5ZM5.35 16.3H7.25V14.4H5.35V16.3ZM5.35 12.5H7.25V10.6H5.35V12.5Z" fill="#18592A"/>
</svg>