<svg width="26" height="14" viewBox="0 0 26 14" fill="none" xmlns="http://www.w3.org/2000/svg">
<circle cx="7.55838" cy="4.5" r="4" fill="#F8D784" stroke="#F9A66A"/>
<path d="M0.0896501 14H20.4909H25.5584V9.82572C25.5584 9.27792 25.482 8.73278 25.3315 8.20605C24.8278 6.44291 23.805 4.87221 22.3964 3.69831L21.5584 3C19.7062 1.45654 17.1638 1.03638 14.9135 1.90186L12.0584 3C10.3329 3.44444 5.98155 5.33333 3.05838 6.66667C0.135211 8 -0.214847 11.4444 0.0896501 14Z" fill="#268C36"/>
<path d="M0.0871426 14H18.8563H24.5584L24.0584 12.5L23.5584 11C23.2419 9.32856 22.1914 7.88769 20.6968 7.07524L20.5584 7L20.4559 6.84945C19.4827 5.42007 17.7606 4.69581 16.0584 5L13.0584 5.5C11.7303 6.16402 10.317 6.62866 8.83344 6.6905C7.23917 6.75696 5.28831 6.84025 3.55838 7.5C0.869064 8.52564 -0.192994 12.0342 0.0871426 14Z" fill="#1B6C28"/>
</svg>
